<svg height="50" width="100" xmlns="http://www.w3.org/2000/svg"><path d="m-2.40625 44.5 2 2.4375s5.65625 7.000049 5.65625 17.5625-5.65625 17.5625-5.65625 17.5625l-2 2.4375h3.15625 14c2.408076.000001 7.689699.024514 13.625-2.40625s12.536536-7.343266 17.6875-16.875l-1.3125-.71875 1.3125-.71875c-10.303113-19.06566-26.555926-19.28125-31.3125-19.28125h-14zm5.875 3h11.28125c4.684173 0 18.28685-.130207 27.96875 17-4.766786 8.429075-10.521281 12.68391-15.71875 14.8125-5.360661 2.195424-9.841925 2.187501-12.25 2.1875h-11.25c1.8735884-3.108434 4.75-9.04935 4.75-17 0-7.973354-2.9085314-13.900185-4.78125-17z" fill-rule="evenodd" transform="translate(26.5 -39.5)"/><g stroke="#000" stroke-width="2"><path d="m23 15h-18"/><path d="m32 35h-27"/><path d="m70 25h25"/><circle cx="27" cy="15" fill="none" r="3"/></g></svg>