<?xml version="1.0" encoding="UTF-8" standalone="no"?>
<!-- Created with Notepad++ -->
<svg xmlns:svg="http://www.w3.org/2000/svg" xmlns="http://www.w3.org/2000/svg" version="1.0" width="100" height="50">
  <g>
    <g transform="translate(1,-1)">
      <path  d="M 30,5 L 30,6.4285714 L 30,43.571429 L 30,45 L 31.428571,45 L 50.47619,45 C 61.744098,45 70.47619,35.999955 70.47619,25 C 70.47619,14.000045 61.744099,5.0000002 50.47619,5 C 50.47619,5 50.47619,5 31.428571,5 L 30,5 z M 32.857143,7.8571429 C 40.834264,7.8571429 45.918368,7.8571429 48.095238,7.8571429 C 49.285714,7.8571429 49.880952,7.8571429 50.178571,7.8571429 C 50.327381,7.8571429 50.409227,7.8571429 50.446429,7.8571429 C 50.465029,7.8571429 50.471543,7.8571429 50.47619,7.8571429 C 60.236853,7.857143 67.142857,15.497098 67.142857,25 C 67.142857,34.502902 59.760662,42.142857 50,42.142857 L 32.857143,42.142857 L 32.857143,7.8571429 z" />
    </g>
  </g>
  	<g style="stroke:#000000;stroke-width:2">
		<polyline points="32,15 5,15"/>
		<polyline points="23,35 5,35"/> 
		<polyline points="70,25 95,25"/> 
		<circle cx="27" cy="35" r="3" style="fill-opacity:0"/>
	</g>
</svg>
