<svg height="100" width="180" xmlns="http://www.w3.org/2000/svg"><g fill="none" stroke="#000" stroke-width="2" transform="translate(60 52)"><path d="m70 25h25"/><path d="m31 15h-31v-55"/><path d="m32 35h-52v-55"/><path d="m30 5v1.428 37.143 1.429h1.428 19.048c11.268 0 19.994-9 20.00019-20 0-10.999955-8.732091-19.9999998-20-20 0 0 0 0-19.047619 0zm2.857143 2.8571429h15.238095 2.083333.267858.029761c9.760663.0000001 16.666667 7.6399551 16.666667 17.1428571s-7.382195 17.142857-17.142857 17.142857h-17.142857z" fill="#000" stroke="none"/></g><g fill="none" stroke="#000" stroke-width="2" transform="translate(60.03125 -3.637817)"><path d="m70.100164 25.637817h25"/><path d="m31.100164 15.637817h-66"/><path d="m31.100164 35.637817h-66"/><g fill="#000" stroke="none" stroke-width="0" transform="translate(26.6 -38.862)"><path d="m-2.25 81.5c-1.597 2.644-2.25 3-2.25 3h-3.656l2-2.438c-.00025.000505 5.656-6.999549 5.656-17.562 0-10.563-5.656-17.563-5.656-17.563l-2-2.437h3.656c.78125.9375 1.421875 1.65625 2.21875 3 1.872719 3.099815 4.78125 9.026646 4.78125 17 0 7.95065-2.896697 13.879425-4.75 17.000005z"/><path d="m-2.406 44.5 2 2.437s5.656 7 5.656 17.563c0 10.562-5.656 17.562-5.656 17.562l-2 2.438h3.156 14c2.408 0 7.689.024 13.625-2.40625 5.935301-2.430764 12.536536-7.343266 17.6875-16.875l-1.3125-.71875 1.3125-.71875c-10.303113-19.06566-26.555926-19.28125-31.3125-19.28125h-14-3.15625zm5.87475 3h11.28125c4.684173 0 18.28685-.130207 27.96875 17-4.766786 8.429075-10.521281 12.68391-15.71875 14.8125-5.360661 2.195424-9.841925 2.187501-12.25 2.1875h-11.25c1.8735884-3.108434 4.75-9.04935 4.75-17 0-7.973354-2.9085314-13.900185-4.78125-17z"/></g></g><g font-family="DejaVu Sans" font-size="16"><text x="5.131" y="18">A</text><text x="5.131" y="38">B</text><text x="165.131" y="28">S</text><text x="165.131" y="83">C</text></g><path d="m15 27.5a2.5 2.5 0 1 1 -5 0 2.5 2.5 0 1 1 5 0z" transform="translate(47.631 -15.5)"/><path d="m15 27.5a2.5 2.5 0 1 1 -5 0 2.5 2.5 0 1 1 5 0z" transform="translate(27.506 4.5)"/><g fill="none" stroke="#000" stroke-width="2"><path d="m25 17.5a2.5 2.5 0 1 1 -5 0 2.5 2.5 0 1 1 5 0z" transform="translate(.131 -5.5)"/><path d="m25 17.5a2.5 2.5 0 1 1 -5 0 2.5 2.5 0 1 1 5 0z" transform="translate(.131 14.5)"/><path d="m25 17.5a2.5 2.5 0 1 1 -5 0 2.5 2.5 0 1 1 5 0z" transform="translate(135.131 4.5)"/><path d="m25 17.5a2.5 2.5 0 1 1 -5 0 2.5 2.5 0 1 1 5 0z" transform="translate(135.131 59.5)"/></g></svg>